<svg version="1.1" id="Layer_1" xmlns="http://www.w3.org/2000/svg" xmlns:xlink="http://www.w3.org/1999/xlink" x="0px" y="0px"
	 width="100%" viewBox="0 0 1024 672" enable-background="new 0 0 1024 672" xml:space="preserve">
<path fill="#000000" opacity="1.000000" stroke="none"
	d="
M155.573700,405.708496
	C156.501740,401.229248 157.452225,397.186981 158.242340,393.113617
	C161.616455,375.718414 188.534882,356.628510 211.305023,367.576202
	C219.360016,371.448975 224.802567,377.703125 228.313873,385.775909
	C228.836685,386.977875 229.383682,388.280853 228.097656,389.762299
	C224.910919,389.616028 223.990875,386.448975 222.041046,384.694580
	C213.745819,377.230713 204.367996,373.193909 193.188477,376.339691
	C182.064117,379.469940 174.859650,386.824707 172.095871,398.188019
	C168.252563,413.989899 176.144577,432.272430 190.116531,441.586090
	C208.601166,453.907898 228.681732,455.187378 250.025665,452.521484
	C265.392487,450.602234 277.465454,441.898071 290.831665,435.810883
	C294.223877,434.266022 294.620117,431.493774 292.234802,428.410278
	C288.161621,423.144714 284.200867,417.792328 280.166046,412.496887
	C274.640503,405.244934 273.633728,396.230408 270.815002,387.963867
	C267.578400,378.472046 266.634552,368.517517 267.381897,358.438751
	C267.692871,354.244720 264.943909,352.277679 261.373199,350.899780
	C244.629654,344.438660 229.135178,335.701569 214.962997,324.707672
	C179.302521,297.044495 158.877182,260.705383 153.823776,215.889923
	C150.632965,187.592636 158.995209,162.477829 178.153839,141.834244
	C192.381760,126.503548 210.568008,116.742096 231.663483,113.901314
	C274.885071,108.080986 306.839508,126.073517 330.153931,161.529846
	C335.657806,169.900101 339.985474,178.919601 342.728485,188.617004
	C343.259918,190.495850 344.197571,192.349731 343.558594,194.440674
	C341.576202,196.052444 339.924072,194.904587 338.791046,193.524979
	C325.137146,176.899536 305.705261,173.332809 286.131256,170.514069
	C273.147125,168.644318 260.168671,166.532257 247.035339,165.783554
	C235.689056,165.136765 225.774094,160.152481 216.333099,154.561371
	C199.250595,144.444855 178.420776,152.961563 169.981049,170.576385
	C162.943375,185.264923 163.336243,200.355789 164.553253,215.563873
	C165.954437,233.073227 170.507614,249.961639 178.122574,265.913239
	C188.301529,287.235748 205.109161,302.761475 222.668304,317.833099
	C234.625931,328.096741 248.477386,334.139343 263.099182,338.970276
	C268.898590,340.886322 270.432983,340.196381 272.851593,334.721710
	C276.627716,326.174194 282.225372,319.073700 289.269653,312.977020
	C294.935272,308.073547 295.464600,306.062286 291.976776,299.603821
	C283.497437,283.902374 276.812988,267.402466 269.683167,251.088455
	C260.030273,229.001343 236.510376,214.848419 212.594360,216.421844
	C206.615524,216.815216 202.601929,220.836090 198.970078,224.922668
	C194.831390,229.579544 192.130371,235.125931 191.236526,241.415436
	C191.003983,243.051682 190.658127,244.652283 189.230637,246.009506
	C186.542297,244.658203 186.816040,242.249649 186.662613,239.999939
	C185.430176,221.929428 198.429581,208.918991 212.958405,203.985580
	C229.016312,198.532913 243.920441,203.201385 257.524567,212.099228
	C272.993439,222.216782 282.996094,237.236649 292.439972,252.664124
	C300.092194,265.164795 307.540161,277.795990 317.149658,288.992035
	C320.993774,293.470825 324.947632,295.355621 331.086426,293.821228
	C350.516113,288.964722 370.446594,290.095490 390.233612,289.751984
	C403.220764,289.526459 416.158142,288.874512 429.008392,286.832794
	C436.027924,285.717499 436.610016,284.836243 433.641937,278.443237
	C432.231415,275.405151 431.766266,272.464233 433.704773,269.422211
	C435.452789,266.679199 435.015015,264.057251 432.882050,261.647522
	C429.509064,257.836853 429.650909,253.832291 432.317902,249.732300
	C434.443726,246.464203 435.136353,243.255325 433.332611,239.415680
	C431.724335,235.992126 432.499512,232.482498 435.351929,229.796906
	C438.142090,227.169937 439.334503,224.470535 437.993591,220.473038
	C436.687653,216.579819 437.708313,212.743668 441.320526,210.282379
	C443.924133,208.508347 444.522034,206.364319 443.927216,203.436050
	C442.826660,198.017990 444.192261,193.518219 449.275848,190.631989
	C451.389587,189.431900 451.773041,187.775269 450.857300,185.563507
	C448.998779,181.074646 449.670837,177.038162 453.474640,173.824493
	C455.446777,172.158295 455.648224,170.284653 454.820282,168.013016
	C453.470459,164.309601 453.253601,160.553131 454.456268,156.740845
	C455.149567,154.543350 454.895081,152.476089 453.351166,150.636627
	C451.940704,148.956146 450.898895,147.072113 450.478851,144.885925
	C450.447968,144.725128 450.361816,144.574524 450.298187,144.420517
	C448.154419,139.235001 432.250427,133.575455 427.338440,136.234970
	C425.129486,137.430984 422.822723,138.741928 420.268433,138.340988
	C415.208344,137.546707 411.630798,139.860214 408.424652,143.300812
	C407.517303,144.274567 406.662811,145.449768 405.527588,146.035416
	C394.050873,151.956116 393.112885,162.966492 392.356171,173.807129
	C391.109467,191.667313 397.689178,206.337006 411.435577,217.809402
	C412.542542,218.733261 413.957520,219.539291 413.807007,221.631607
	C410.413849,222.850616 408.240356,220.299240 406.082703,218.685608
	C392.709290,208.684067 385.137268,194.952103 382.742950,178.739502
	C377.641144,144.193253 402.125854,114.412193 437.066284,113.172493
	C458.641388,112.407005 485.140930,124.203659 491.110962,148.419617
	C494.471100,162.049042 492.752930,175.518494 488.710632,188.782318
	C484.394989,202.943008 478.189056,216.550812 475.857239,231.284409
	C474.573547,239.395462 474.682465,247.575714 477.286713,255.491730
	C478.910065,260.426117 481.368622,261.230927 485.437317,257.936310
	C497.491364,248.175659 509.673065,238.623779 523.265747,231.028961
	C527.523376,228.650040 528.115173,224.074280 529.428955,220.004807
	C530.244385,217.479034 530.598145,214.800980 531.455261,212.292450
	C534.848328,202.362015 541.781616,197.335602 552.211487,197.715668
	C564.133484,198.150101 572.952087,193.894913 578.116394,182.660400
	C580.857971,176.696259 586.231201,173.016220 592.344666,171.700302
	C604.542358,169.074722 614.173889,161.773514 623.667542,154.734467
	C638.191772,143.965500 654.020386,136.125748 670.865295,130.093155
	C686.070312,124.647850 701.375427,119.476578 717.030640,115.425323
	C722.891663,113.908623 724.803223,111.846115 724.761230,105.644012
	C724.725281,100.342300 724.010193,95.033112 723.398682,89.750008
	C722.297546,80.236389 727.441833,75.962090 736.711060,78.845932
	C749.461914,82.812973 761.350769,89.037636 773.961792,93.304634
	C790.656433,98.953316 807.438965,104.814636 825.496216,103.539375
	C834.785339,102.883347 844.049500,101.727142 853.284790,100.495758
	C862.243835,99.301216 871.210083,99.083168 880.185852,99.731552
	C889.533936,100.406845 892.215759,104.850990 887.781311,113.021027
	C884.003845,119.980782 881.839294,127.181496 880.144775,134.930435
	C876.014832,153.817078 868.097473,171.234573 856.358826,186.761642
	C855.455688,187.956238 854.512512,189.131454 853.487427,190.221161
	C846.503906,197.645355 840.097046,196.338242 836.803772,186.829636
	C836.204407,185.098892 835.699524,183.335556 835.109436,181.601440
	C834.094971,178.620300 832.228699,177.008087 828.843872,176.949509
	C820.894165,176.811935 812.878662,177.119736 805.582886,172.798584
	C802.937866,171.231979 800.401611,173.044800 798.308655,174.760742
	C792.610413,179.432709 787.452637,184.636658 783.579285,190.959961
	C766.046753,219.582672 741.739014,241.219681 713.629272,258.956421
	C708.275696,262.334412 702.983337,265.809998 697.612854,269.160553
	C695.145020,270.700195 693.360107,272.700684 691.870056,275.229858
	C687.961304,281.864532 682.920288,287.241669 674.940125,288.975281
	C672.429382,289.520691 670.367493,290.895660 668.816040,293.016449
	C663.272705,300.594147 656.934265,307.549072 649.410339,313.065460
	C636.136047,322.797913 629.247314,336.688599 622.915588,351.118134
	C615.358704,368.339844 609.299988,386.191925 600.162720,402.755890
	C588.994934,423.000702 573.213074,438.495667 553.798035,450.709503
	C543.655273,457.090240 533.508240,463.526947 524.511536,471.556305
	C521.641663,474.117584 518.811890,476.720520 516.672668,479.922333
	C513.671387,484.414398 515.473755,487.847992 520.756470,488.690704
	C526.925171,489.674744 532.675171,491.726440 536.336365,497.336212
	C537.724976,499.463837 539.238159,499.870087 541.811462,499.050629
	C548.529297,496.911499 555.230835,497.937073 561.539062,500.735046
	C565.013794,502.276154 568.519592,501.937653 571.815735,501.375458
	C589.457214,498.366516 606.877136,497.551025 623.895142,504.536194
	C626.270569,505.511200 628.432922,504.916473 630.052673,502.675598
	C643.020874,484.734650 654.073669,465.835480 658.953064,443.943939
	C659.777710,440.244476 659.735779,436.346252 660.023865,432.534546
	C660.260132,429.407776 661.560242,427.059052 664.697632,426.167175
	C667.627136,425.334381 669.439392,427.160156 670.937988,429.265747
	C679.189026,440.858521 684.068665,453.879578 686.982971,467.695953
	C691.833679,490.692902 688.732727,513.210938 681.487732,535.086609
	C673.640869,558.779358 657.674622,576.777832 638.325989,591.977844
	C618.444153,607.596680 596.998108,620.645142 573.755859,630.614319
	C554.306946,638.956421 534.240967,644.682190 512.742493,643.362915
	C489.080811,641.911072 470.310394,631.119812 456.472656,612.316711
	C438.063202,587.301392 429.359619,558.866882 428.532013,527.844604
	C428.178009,514.574829 429.874298,501.606995 432.342621,488.658875
	C433.456757,482.814453 432.203766,481.036560 426.364685,481.363556
	C408.109894,482.385864 391.051208,487.264130 377.549835,500.166443
	C366.930847,510.314209 361.161072,522.968628 364.529663,538.011108
	C366.756287,547.954102 373.888885,555.048950 380.851807,562.075500
	C388.495300,569.788696 393.928497,578.519531 395.547363,589.717651
	C398.535370,610.386841 384.947113,625.164795 372.098206,631.654907
	C367.442535,634.006531 362.536163,635.551208 357.302216,635.850220
	C351.133240,636.202759 345.777802,634.471497 341.805328,629.471008
	C340.862030,628.283569 339.824066,626.890869 340.897858,625.417297
	C342.001160,623.903259 343.568390,624.626282 344.984375,625.195801
	C352.437073,628.193665 359.706543,627.728760 366.588593,623.638672
	C380.727539,615.235840 382.756378,595.368591 370.765350,582.528687
	C365.158325,576.524719 358.279663,572.063477 351.630768,567.318726
	C343.337982,561.401001 335.171265,555.215393 330.348511,545.898376
	C322.343719,530.433960 324.415955,514.846375 330.838806,499.594025
	C337.012726,484.932800 347.699585,473.776917 360.138947,464.163177
	C361.748901,462.918976 364.608917,462.129730 363.940979,459.512085
	C363.362518,457.245178 360.727875,456.911774 358.661407,456.270508
	C354.049133,454.839203 350.400299,454.933258 346.964355,459.552399
	C342.889954,465.029785 336.678345,467.282196 329.678436,466.403778
	C325.703064,465.904877 323.051727,467.709534 320.916260,470.864929
	C316.184021,477.857269 308.723633,481.016571 300.579987,478.988007
	C296.684479,478.017609 294.104584,479.731903 291.591949,481.891998
	C285.776093,486.891754 279.269897,489.124451 271.729553,487.058472
	C269.044373,486.322723 266.632111,486.890106 264.554993,488.144623
	C246.572556,499.005432 232.945526,513.370972 229.681473,535.004700
	C227.800858,547.469177 229.507751,559.951294 232.796234,572.070068
	C235.799637,583.138367 236.970734,594.327820 236.306549,605.707458
	C235.829575,613.880066 232.874863,621.258423 228.002640,627.835510
	C227.037201,629.138733 225.938950,630.866882 223.977051,629.566406
	C222.388611,628.513611 223.018631,626.869934 223.687408,625.503357
	C231.289459,609.969116 228.679642,594.507141 223.750229,578.896912
	C218.048965,560.842529 214.663254,542.444336 217.642303,523.406372
	C219.093369,514.133118 222.148010,505.348297 225.931152,496.780457
	C228.837204,490.199005 227.639877,488.340637 220.347687,488.444275
	C215.074631,488.519196 210.697006,486.918823 206.575653,483.612427
	C202.827560,480.605438 198.616196,478.618225 193.460785,478.184174
	C185.696426,477.530518 180.164001,473.079163 177.676926,465.547729
	C176.544937,462.119781 174.639725,460.072174 171.330994,458.494354
	C163.769211,454.888458 159.823730,448.488525 159.725204,440.138824
	C159.676605,436.019043 159.124908,432.362030 156.900146,428.769653
	C152.436676,421.562408 152.948364,413.864960 155.573700,405.708496
M655.493713,273.156708
	C656.739197,272.467163 657.140015,270.193604 659.238525,270.849731
	C659.499878,273.805847 656.030457,275.420563 657.010742,278.395905
	C662.259644,277.334259 664.240356,275.053101 663.269531,270.802673
	C662.755981,268.554108 664.116150,267.412354 665.099060,265.937042
	C667.374756,262.521149 670.403870,259.415100 669.827148,254.852753
	C666.244202,252.144836 663.589355,254.160324 660.472473,255.934509
	C649.623657,262.109894 637.038147,254.849686 636.926819,242.557938
	C636.894897,239.037491 637.250305,235.470093 638.563660,232.263214
	C639.964294,228.843216 639.362671,225.886871 638.276184,222.999741
	C636.186890,221.814636 635.355652,225.029709 633.473816,223.800919
	C633.035828,221.946167 634.252686,220.740402 635.181580,219.392136
	C638.654907,214.350693 643.874878,212.427536 649.518982,211.107025
	C654.522034,209.936508 655.893860,206.933197 653.969421,202.248047
	C652.660583,199.061600 650.342590,197.240814 647.142578,196.176193
	C643.078125,194.823959 638.912842,193.889679 635.184814,191.408447
	C632.636536,189.712402 629.189758,189.042160 626.080383,190.052063
	C619.233398,192.275955 612.416016,193.100235 605.201782,192.000229
	C593.832153,190.266632 582.714905,190.316010 572.614868,197.443909
	C568.192078,200.565216 564.811279,204.676758 560.691467,207.964127
	C558.312134,209.862686 556.788086,211.565140 557.279846,214.467392
	C557.880493,218.011795 555.957336,219.396469 553.155884,220.838379
	C543.686523,225.712158 533.513733,229.084030 524.457581,234.871658
	C512.870667,242.276642 502.415436,251.042236 492.289368,260.320679
	C498.484802,257.371094 503.086517,251.971054 509.377655,249.141342
	C506.075317,255.144531 499.855164,258.302521 494.713776,264.177917
	C503.894653,261.960938 508.690826,254.983292 516.176758,251.215790
	C515.578308,254.271667 513.042908,254.977020 512.843079,257.261261
	C517.902100,260.200012 518.616150,253.460175 522.009521,253.003540
	C523.191284,254.561661 520.685059,255.889755 522.022339,257.259338
	C527.586365,259.096924 527.486877,251.908661 531.467834,251.042679
	C532.311646,253.826355 529.390625,255.340317 529.871643,258.167358
	C535.203918,255.652145 536.284119,249.636139 540.593262,246.044388
	C541.991699,250.000320 543.764893,247.928940 544.775269,246.332474
	C548.838318,239.912872 554.951843,235.099548 559.049866,228.915771
	C566.724487,217.335037 577.993896,211.261093 590.006226,205.875900
	C590.589294,205.614517 591.279907,205.405014 591.835144,206.104019
	C591.855957,207.324158 590.843506,207.759735 590.021851,208.239090
	C581.495361,213.213272 574.894531,220.244736 569.218201,228.140488
	C563.385254,236.254044 558.035583,244.715286 552.191040,252.820084
	C543.007019,265.555939 532.593872,276.792480 516.777100,281.506714
	C501.642792,286.017517 486.541595,281.378204 478.394287,268.849213
	C472.140442,259.232117 469.464203,248.580032 470.229248,237.011353
	C471.178253,222.660980 476.262115,209.440689 480.849121,196.067139
	C484.971680,184.047729 488.567535,171.952469 487.632202,158.992996
	C486.761078,146.923645 482.724335,136.596558 472.065491,129.785553
	C470.467621,128.764511 468.808014,127.521400 466.003784,129.450958
	C470.678253,132.329178 470.827057,138.233521 474.440948,140.874207
	C478.578003,143.897125 476.605194,148.735962 478.861359,151.264008
	C483.251160,156.182800 478.217896,158.241043 476.967651,161.377258
	C480.489624,167.115753 478.206360,177.608749 472.427856,181.764557
	C474.451935,184.590851 474.504944,187.446182 472.286865,190.321106
	C471.722748,191.052307 471.409393,192.232712 471.489227,193.163101
	C471.978088,198.861069 465.081238,202.113464 466.586182,208.122757
	C466.631256,208.302841 466.143982,208.587860 465.956116,208.859406
	C464.990417,210.255264 464.092712,211.689545 464.917877,213.473495
	C465.576202,214.896835 465.321838,216.173828 464.087524,217.022125
	C458.522461,220.846542 460.282684,227.125641 459.252380,232.333099
	C458.891815,234.155563 459.045166,235.718430 457.402191,236.856247
	C456.577942,237.427063 455.195129,238.363678 455.621155,239.022888
	C458.452759,243.404282 455.575470,247.709946 455.523376,251.998062
	C455.471283,256.288147 455.679901,260.364380 456.297852,264.635437
	C456.810577,268.179321 459.530121,272.064270 456.809570,275.918518
	C456.648956,276.146088 457.252106,277.150421 457.713226,277.541992
	C461.963898,281.151703 463.454437,286.289246 465.289032,291.213318
	C465.727509,292.390137 466.241394,293.290619 467.371582,293.824646
	C472.695343,296.340210 476.383972,300.363007 478.360260,305.907867
	C478.843750,307.264374 479.839386,307.556671 481.068085,307.658813
	C484.863037,307.974396 488.600250,309.587585 491.033051,311.915253
	C496.172180,316.832336 502.352722,316.410980 508.440247,317.105835
	C509.266113,317.200104 510.097900,317.264099 510.915100,317.408936
	C520.582947,319.122345 529.782715,317.260742 538.294434,312.838379
	C551.312683,306.074677 562.098083,296.334503 571.890137,285.551575
	C582.178467,274.222198 593.949219,264.792206 607.020508,256.930664
	C608.518860,256.029510 609.931885,254.203354 612.092529,255.354233
	C612.050415,256.892578 611.046387,257.345062 610.254333,257.882446
	C602.206665,263.342438 595.969666,270.239258 592.330505,279.422058
	C590.614014,283.753265 588.142456,287.724579 585.300964,291.476135
	C575.912170,303.872131 563.470886,312.450684 549.881592,319.394958
	C523.843140,332.700806 499.575836,348.068726 482.154114,372.426544
	C465.138794,396.216217 457.014526,422.060577 462.556549,451.360687
	C462.923706,453.301880 463.217804,455.607971 464.423218,456.964966
	C466.787109,459.626129 467.545776,462.747955 468.446045,465.951111
	C470.312775,472.592987 472.891663,477.691864 475.417847,480.062378
	C474.424103,477.019104 474.424103,477.019104 474.990631,472.836151
	C483.497925,491.139954 495.571991,504.601471 513.307739,512.430603
	C530.944397,520.215942 548.818848,519.945496 567.372559,515.209167
	C565.791382,510.800476 563.660706,512.236694 561.557495,513.274048
	C554.295654,516.855469 547.168945,516.446899 540.979431,511.299713
	C537.854126,508.700714 534.765320,507.800049 530.971924,507.955902
	C526.621155,508.134583 521.975586,508.469604 518.542725,505.371277
	C512.389221,499.817444 505.547150,494.999725 500.383789,488.353546
	C490.306213,475.381866 486.570068,460.029541 486.462067,444.340118
	C486.372498,431.333740 486.613647,418.247559 495.091370,406.030029
	C500.612213,398.073822 506.538910,389.961243 511.165100,381.128143
	C516.178711,371.555389 523.278198,363.199310 531.720825,356.207275
	C532.965027,355.176880 534.140076,353.749207 536.754700,354.146027
	C533.220825,358.402069 528.713562,361.098297 526.237183,366.860352
	C527.939758,366.017731 528.592346,365.825867 529.079102,365.430084
	C530.757629,364.065399 532.399292,362.653259 534.017578,361.216980
	C547.925537,348.873016 563.343323,338.747498 579.771118,330.115997
	C581.057190,329.440247 583.014526,327.839508 583.803833,328.819885
	C586.468445,332.129700 588.473145,329.381714 590.582275,328.494232
	C594.741028,326.744293 598.397400,324.078827 602.249939,321.761353
	C612.897278,315.356354 619.450012,305.009644 625.893860,295.189484
	C628.901489,290.606018 632.316772,285.672241 634.521606,280.262543
	C635.561096,286.950256 633.787781,293.097382 631.174438,299.008179
	C623.968323,315.306793 614.111938,330.246460 606.703064,346.441895
	C605.306824,349.493927 603.490906,350.669159 600.056580,348.412933
	C596.240601,359.704865 584.789429,365.205261 581.318420,376.298981
	C581.093811,377.016998 580.307983,377.612915 579.679382,378.142334
	C575.496948,381.665070 574.794861,389.076477 567.467590,389.098083
	C567.357788,389.098389 567.162170,389.326935 567.151611,389.460419
	C566.731323,394.776917 561.683228,396.581390 559.166260,400.218903
	C556.678467,403.814178 554.270752,406.343994 549.765320,406.350098
	C548.530579,406.351776 547.585327,406.995667 546.874878,408.044281
	C542.534851,414.450348 537.828247,420.422302 529.677063,422.206238
	C527.947754,422.584717 527.367615,423.892273 526.972717,425.433655
	C526.602295,426.879059 526.119263,428.268555 525.086121,429.459747
	C522.430237,432.522034 523.234192,437.655365 526.892273,439.057251
	C534.471741,441.961945 542.300964,441.093475 548.951355,437.140778
	C559.025024,431.153503 567.353699,422.882568 574.521973,413.533630
	C575.366333,412.432465 575.877014,410.785187 577.747986,410.798248
	C578.926147,412.648254 576.220886,413.952240 577.053467,415.880035
	C586.232239,408.211365 591.441406,397.944519 596.870667,387.831482
	C598.364990,385.048004 599.333801,381.694214 601.512878,379.620361
	C608.167114,373.287476 612.293457,365.462952 615.577332,357.185913
	C621.838989,341.403595 627.018372,325.215271 633.720703,309.580933
	C639.273621,296.627747 646.662231,284.873871 655.493713,273.156708
M740.592346,217.859756
	C749.830872,210.137787 757.878113,201.272964 765.670044,192.126968
	C768.753113,188.508118 771.469482,184.403931 776.176697,182.378220
	C778.090576,181.554581 778.308411,180.156113 777.067688,177.937363
	C773.093750,170.830505 773.433838,168.139908 779.283203,162.170380
	C784.283875,157.066849 789.684692,152.344955 795.034058,147.595703
	C806.274048,137.616730 818.145447,128.497391 831.524170,121.501358
	C832.801453,120.833450 833.891968,120.045517 835.665710,120.711922
	C841.315063,122.834389 847.041443,124.166847 852.553284,120.119553
	C853.559448,119.380753 854.534912,118.247314 856.076172,118.762383
	C856.909973,120.183929 853.989197,120.996567 855.434143,122.654335
	C860.165771,121.239662 862.945557,116.967445 867.338989,114.616882
	C867.398315,117.213074 865.140198,118.048889 864.868225,119.886192
	C868.870056,121.098022 866.620422,122.692665 865.112061,124.104980
	C857.127075,131.581543 846.866211,134.218399 836.805542,137.162415
	C818.435974,142.537872 801.195984,150.277008 785.405579,161.141449
	C783.607117,162.378830 781.400818,163.362427 780.813354,166.594391
	C784.312134,165.487167 787.209717,164.414337 790.190369,163.677933
	C792.440308,163.122040 795.760010,163.855728 796.940369,162.532166
	C802.356628,156.458939 805.853516,161.989441 809.898804,164.140366
	C812.092285,165.306671 814.096130,166.830368 816.293213,167.988510
	C817.730042,168.745865 819.389404,169.362885 820.853455,167.251358
	C818.224915,165.052765 814.131775,164.996628 812.309143,161.662613
	C817.810547,163.406601 823.076111,165.344101 828.915222,164.753494
	C836.928528,163.943008 844.383972,164.630783 848.344116,173.266891
	C848.859436,174.390518 849.955139,175.025970 851.268799,174.437332
	C852.350342,173.952621 853.721924,173.091675 853.255920,171.920456
	C852.124268,169.075790 854.268494,167.644089 855.359802,165.697754
	C858.290405,160.471024 861.041382,155.180130 863.025818,149.473892
	C866.901489,138.329391 870.144897,126.905571 876.927368,116.974274
	C878.956055,114.003769 881.945435,110.640633 879.997192,106.984261
	C877.849976,102.954529 873.167297,104.289879 869.512451,104.370476
	C856.507141,104.657265 843.783203,107.427811 830.934814,109.011353
	C806.837952,111.981239 782.527649,113.179054 758.335938,115.433823
	C741.296631,117.021950 724.127258,117.709320 707.623047,123.201820
	C686.936890,130.086014 665.734375,135.530930 646.372192,145.962372
	C642.414551,148.094559 638.774048,150.641617 635.133484,153.569626
	C637.173096,155.359360 639.432678,154.680557 640.684509,156.261200
	C640.309875,158.214722 636.660583,157.143509 637.337280,159.075775
	C638.257568,161.703903 635.599304,161.915512 634.802368,164.765259
	C648.189087,170.573135 662.058899,176.304565 670.919373,189.066162
	C658.445007,179.997391 646.068237,171.685287 629.451050,172.065216
	C604.845581,172.627747 589.145691,175.849747 586.184143,182.530029
	C590.918945,183.582870 595.418945,181.567719 600.062439,181.654144
	C614.459290,181.922104 628.429871,185.165695 642.542236,187.438858
	C653.449158,189.195694 661.565552,194.978012 667.224182,204.352463
	C673.184265,214.226456 676.547302,224.949203 677.389160,236.430634
	C678.163818,246.995804 679.022583,247.955765 688.776550,247.989029
	C689.035095,247.989914 689.294739,247.646912 689.662109,247.388031
	C692.118408,240.289810 689.837158,232.710098 691.227173,224.427780
	C693.905701,228.396942 693.783752,232.110413 694.297119,235.578629
	C694.871155,239.457169 696.713989,240.465057 700.156311,238.832214
	C703.923523,237.045319 707.550537,235.045288 710.920105,232.539307
	C720.264709,225.589584 727.407654,216.584747 734.558594,207.574615
	C741.807129,198.441528 748.798401,189.059402 757.909973,181.627106
	C760.860535,179.220322 763.738220,176.455704 768.082703,176.185364
	C749.974915,188.860229 739.079834,207.797989 725.254211,224.193268
	C731.055420,221.954514 734.984375,217.528168 738.722351,213.006058
	C745.510437,204.794159 751.957336,196.298782 758.801697,188.135559
	C761.759521,184.607712 765.075134,181.205948 770.051636,180.294739
	C756.134888,191.118576 749.019653,207.460510 736.137756,219.929474
	C738.607117,220.073013 739.185974,218.880493 740.592346,217.859756
M574.669922,531.285217
	C560.982605,534.067383 547.386353,537.218018 533.178528,535.476685
	C522.259521,534.138367 512.125305,530.740417 502.466064,525.680725
	C497.813385,523.243591 495.245178,524.427490 494.437500,529.565491
	C494.231415,530.876343 494.167480,532.221924 494.169800,533.551392
	C494.226685,566.403870 510.109131,594.557922 548.305420,602.383972
	C559.111389,604.597961 569.861023,604.636658 579.321716,597.308899
	C581.082764,595.944824 583.371277,594.505371 585.718872,596.379456
	C588.275940,598.420593 589.579834,596.856506 590.879333,594.881287
	C594.374634,589.568726 597.341675,583.962219 599.334412,577.934204
	C603.670288,564.817627 607.422302,551.495056 612.153992,538.526978
	C615.288513,529.935974 614.983276,526.848572 603.015198,526.448059
	C602.021301,526.414856 601.013062,526.487244 600.026245,526.620300
	C591.777710,527.732849 583.546509,528.946289 574.669922,531.285217
M306.046844,362.620850
	C304.416534,362.301575 302.788483,361.970001 301.155457,361.665222
	C295.565552,360.621735 293.544647,361.807312 291.841858,367.112366
	C285.782257,385.990967 295.238831,413.444458 311.617981,424.546387
	C313.428497,425.773529 315.275055,427.039368 317.581390,426.634125
	C322.648132,425.743896 327.694763,424.913910 332.300323,422.251251
	C351.945465,410.893829 369.817047,397.016907 387.831421,383.346527
	C392.150024,380.069305 391.760956,378.015991 386.680298,376.263428
	C378.976196,373.605835 371.212219,371.122467 363.810974,367.663300
	C361.330292,366.503876 358.693970,366.337616 356.002838,366.433014
	C339.500885,367.017975 323.113647,366.016083 306.046844,362.620850
M326.627869,304.923035
	C313.124420,294.175201 303.583740,280.043610 293.801300,264.785645
	C292.430176,270.908630 290.565613,275.650238 297.209015,278.034760
	C299.253662,278.768646 299.689484,281.063599 299.945953,283.078094
	C300.140594,284.606842 300.331757,286.194427 301.629761,287.103729
	C304.432983,289.067535 304.608490,291.751556 303.943817,294.664093
	C303.539429,296.436035 303.215149,298.150208 305.521393,298.606628
	C309.309418,299.356201 311.004669,301.682404 311.873657,305.320953
	C312.346985,307.302826 313.589752,309.322815 315.895264,310.134094
	C317.069641,310.547333 318.199890,311.436798 318.060669,312.617523
	C317.440247,317.879211 320.546814,319.588684 324.910797,320.454895
	C325.775726,320.626556 326.810242,321.448456 327.203125,322.247528
	C329.611542,327.145752 336.930450,328.506378 336.627045,335.339355
	C336.616638,335.573181 337.044067,336.041412 337.263336,336.038879
	C342.362091,335.980682 345.661041,340.743774 350.456482,341.093567
	C353.712341,341.331024 355.456940,342.908508 356.210754,345.635986
	C357.100494,348.855286 358.462341,349.744537 361.952789,348.921112
	C369.090637,347.237213 377.366241,351.603760 380.275177,358.311859
	C381.497711,361.130981 383.492859,361.011047 385.582001,360.390991
	C390.962067,358.794250 396.224854,360.549835 399.563171,363.770966
	C403.729431,367.790985 406.865356,370.266296 413.310730,369.422974
	C418.698242,368.718048 425.119080,368.992340 429.857635,373.511047
	C430.248383,373.883636 431.258820,374.026672 431.761902,373.796600
	C437.213654,371.303314 443.277496,374.846436 448.719482,372.000031
	C450.038055,371.310333 451.661682,371.828369 453.113403,372.318207
	C456.249878,373.376526 458.991119,372.545410 460.258972,369.565338
	C461.819611,365.897125 457.301880,367.062836 456.372406,365.591644
	C456.080048,363.796204 458.796051,364.298523 458.302032,362.572662
	C456.480530,361.936310 454.214447,363.516388 452.877106,361.447052
	C453.460846,358.975372 456.399231,360.509644 457.162323,358.571411
	C455.217163,357.572601 452.921478,359.983948 450.775635,357.621826
	C456.403564,353.614960 463.926605,356.090057 469.359406,351.331451
	C463.083557,352.170807 457.178009,352.960632 449.961517,353.925781
	C453.304047,350.356476 457.720367,352.120056 460.028748,348.918518
	C455.602142,347.586609 451.523956,348.907654 446.935669,348.582001
	C449.251801,345.814758 453.037933,348.366760 454.695679,345.401672
	C452.523285,343.496124 449.779907,344.574493 447.485046,343.451477
	C440.528595,340.047272 432.619934,339.498657 425.270142,337.868591
	C412.342377,335.001343 399.076294,333.325806 386.115967,330.262207
	C365.073578,325.288086 344.766510,318.557709 326.627869,304.923035
M381.877655,427.649567
	C382.682312,426.249115 384.589478,425.675415 384.899445,423.257324
	C380.056976,421.073395 377.883972,427.555969 372.829376,426.944885
	C377.676544,420.909180 385.453033,418.443390 388.980865,410.850403
	C380.636932,410.712769 376.662354,419.223785 369.271912,418.216003
	C368.011963,416.466217 370.820526,415.647858 369.885742,413.992523
	C367.024567,414.652954 364.943085,416.630646 362.534454,418.031158
	C358.969055,420.104248 355.904510,423.935913 351.704773,423.772949
	C348.295135,423.640656 346.050598,425.000458 343.483582,426.422943
	C339.554443,428.600281 335.599640,430.732056 331.634277,432.842834
	C330.624207,433.380493 329.354248,434.375549 328.395233,433.664948
	C325.421173,431.461304 322.939362,433.347748 320.550781,434.493622
	C307.172668,440.911072 293.445312,446.363861 279.232239,450.675995
	C257.476532,457.276489 235.473312,460.574982 212.752731,457.059509
	C206.210266,456.047241 200.494110,452.601471 193.413864,450.688080
	C199.864975,457.031891 208.570099,456.212982 215.005661,460.548096
	C201.874756,461.258667 191.699844,453.778961 181.039444,447.971436
	C180.110565,449.205963 181.887939,449.904541 181.028122,450.977600
	C178.129807,454.594604 178.507996,457.588837 182.497284,458.316101
	C188.501053,459.410553 194.060822,462.813995 197.522797,466.364227
	C202.567993,471.537994 207.438339,473.909729 214.199112,474.151733
	C215.965546,474.214966 217.788132,475.173615 219.539658,474.373230
	C223.634964,472.501740 227.127670,473.829895 230.058289,476.570740
	C232.874146,479.204132 235.407272,479.355621 238.496841,477.206329
	C240.296906,475.954102 242.403427,475.424774 244.668457,476.302368
	C246.456894,476.995331 248.481216,477.007599 250.006516,476.008514
	C254.691788,472.939606 258.473267,474.505737 262.056488,477.874176
	C263.236938,478.983856 264.746735,480.041748 265.808014,478.245178
	C268.548676,473.605682 272.104553,471.138763 277.699188,472.360870
	C278.328247,472.498260 279.270386,471.804565 279.889832,471.284760
	C283.583679,468.185181 287.305054,469.249969 291.017609,471.151886
	C292.149689,471.731873 293.726166,473.458618 294.432098,472.136536
	C297.443207,466.497375 303.540131,465.904816 307.911835,462.803619
	C311.874268,459.992798 314.986725,459.013062 319.013367,460.125000
	C321.936310,460.932190 323.370026,460.008881 324.594238,457.604095
	C326.440948,453.976562 328.333832,450.349274 333.522858,451.401825
	C334.548309,451.609802 335.458588,450.880829 336.023102,450.016846
	C338.781769,445.794769 342.836731,445.477234 346.968658,446.927338
	C350.344543,448.112183 351.712250,447.034973 353.030548,444.042938
	C355.329895,438.824341 367.422546,431.662537 373.175385,432.584076
	C377.521545,433.280273 379.808777,431.769592 381.877655,427.649567
M511.229462,610.306641
	C505.641876,608.561768 499.887299,606.942932 496.127563,602.062378
	C493.300537,598.392700 489.955261,595.782043 485.761719,593.768250
	C480.845551,591.407532 476.939667,587.750610 476.443237,581.751099
	C476.163605,578.372131 474.272644,576.543640 471.287903,575.092041
	C463.463776,571.286804 460.215454,564.459290 462.087097,555.904175
	C462.601196,553.554138 461.404022,552.660217 459.984222,551.397217
	C453.476471,545.608276 452.109100,538.506592 456.439392,531.284485
	C457.962921,528.743530 457.364258,527.145325 455.934448,525.018616
	C450.792999,517.371094 451.078552,511.878235 457.007904,505.194427
	C458.644470,503.349670 459.505951,501.435425 458.380646,499.334412
	C455.820282,494.553986 456.143982,489.845886 457.587036,484.824799
	C458.631775,481.189636 456.731232,479.565216 452.925018,480.098022
	C450.050415,480.500427 448.590881,482.420227 447.705597,484.886902
	C443.694489,496.063049 440.896027,507.507019 440.156250,519.405151
	C439.012695,537.797607 442.343475,555.551514 447.994598,572.923950
	C452.562653,586.966614 458.117432,600.769714 469.230682,610.927307
	C495.577057,635.008301 542.499573,639.381592 572.021484,615.051086
	C574.383728,613.104309 576.631531,611.090637 578.082031,608.274658
	C575.712158,608.895935 573.642639,609.888367 571.549561,610.828186
	C561.469788,615.353943 551.089172,619.111877 539.868713,617.884827
	C530.276489,616.835815 520.797546,614.784668 511.229462,610.306641
M333.800354,525.121582
	C336.040009,542.046021 341.570190,552.945557 349.846191,556.746582
	C337.890533,534.312073 337.890533,534.312073 339.987030,528.859680
	C342.016541,536.985535 343.949158,544.532043 349.959625,550.720154
	C351.026215,547.775024 348.385132,546.221130 349.500946,544.177368
	C351.487396,543.615417 351.717682,546.793884 353.881470,545.989319
	C355.266052,544.369202 355.685211,541.700256 354.312958,540.637329
	C349.652863,537.027466 350.439026,532.151428 349.590363,527.266785
	C348.259308,519.605652 354.871826,514.655640 354.828613,507.710052
	C354.826965,507.447784 355.228577,507.195038 355.411530,506.917603
	C356.679291,504.995331 358.393250,503.285858 358.113617,500.666260
	C357.948029,499.115082 358.930542,497.880768 360.199066,497.583984
	C368.067413,495.743225 368.482941,486.660858 374.574066,482.916595
	C376.436249,481.771881 377.726196,479.572388 380.281006,479.753845
	C383.473297,479.980591 385.093262,478.578339 386.107361,475.581055
	C386.973816,473.020081 398.636108,466.884888 401.238983,467.484222
	C403.433502,467.989532 405.498138,469.059113 407.538635,469.847382
	C409.557617,468.091064 410.755035,464.856354 413.468231,465.398529
	C417.687622,466.241760 419.889374,463.380615 422.775513,461.635651
	C424.078156,460.847992 425.040619,459.436035 424.162750,458.357605
	C422.786530,456.666931 423.269836,453.209412 420.262177,453.219788
	C415.146820,453.237457 409.835144,451.600281 405.061188,455.326416
	C402.749298,457.130890 399.748291,458.048218 397.071014,459.390686
	C395.720673,460.067810 393.784790,461.244019 392.908722,460.235962
	C389.832581,456.696716 387.501038,459.546356 385.124664,460.831421
	C381.586090,462.745087 378.411102,465.369019 373.595947,466.778992
	C376.390625,462.910828 379.951447,461.311157 382.886475,458.584381
	C382.016998,458.352600 381.669769,458.134644 381.411896,458.212494
	C380.138397,458.597137 378.837158,458.950348 377.638275,459.512238
	C365.350464,465.271362 355.097321,473.670044 346.547729,484.107910
	C340.960480,490.929138 335.780396,497.670135 335.775482,507.588867
	C335.772827,512.973938 333.976166,518.639343 333.800354,525.121582
M452.102112,427.650085
	C453.367035,427.155518 454.806000,426.582428 455.075775,425.201599
	C455.967865,420.635254 456.907379,416.047791 457.288269,411.423920
	C457.503082,408.815887 455.592712,408.147675 453.157257,409.058746
	C450.986267,409.870941 448.796112,410.872131 446.534668,411.157074
	C439.949524,411.986725 434.080475,414.008087 428.972839,418.556305
	C425.638489,421.525452 421.511780,423.538391 416.930969,424.301605
	C415.372833,424.561188 413.542542,424.493469 412.486938,426.905914
	C417.188110,430.779144 422.281372,434.669220 428.664032,433.664490
	C436.344086,432.455444 443.810059,429.886292 452.102112,427.650085
M598.292725,611.737000
	C602.813965,609.282166 607.334045,606.825195 611.857056,604.373718
	C613.195801,603.648193 614.636475,602.854736 614.815369,601.231750
	C615.229492,597.474854 617.028015,594.748230 620.192749,592.740173
	C621.550720,591.878479 622.404602,590.441284 621.149170,588.960571
	C620.082581,587.702576 618.773499,588.377625 617.588196,589.157471
	C611.360046,593.255188 608.649780,592.978027 603.333923,587.273743
	C593.321533,602.585205 580.310059,614.896484 566.031738,626.034973
	C577.459167,623.276001 587.603821,617.804260 598.292725,611.737000
M421.557129,294.470703
	C409.591980,292.514374 397.731415,295.756836 385.792236,295.205627
	C384.795868,295.159637 383.374298,295.381989 383.216919,296.356720
	C382.345428,301.752869 376.592316,300.947998 373.780731,303.908051
	C372.732574,305.011566 370.723846,305.202179 370.726776,307.661469
	C375.178314,309.427734 378.221405,313.411163 384.626831,312.610840
	C391.002258,311.814301 396.584747,311.276917 400.746490,306.024658
	C402.370911,303.974548 404.272339,302.670380 407.032928,302.545380
	C413.175537,302.267212 417.125580,297.603394 421.557129,294.470703
M762.899780,94.705055
	C761.976196,94.327820 761.048279,93.960922 760.129761,93.571739
	C752.780945,90.458000 745.435120,87.336929 738.085510,84.225090
	C735.630066,83.185440 732.976685,82.479080 731.732239,85.620110
	C730.631653,88.397926 732.279297,90.695915 734.384888,92.480118
	C734.949402,92.958466 736.477539,93.001747 736.498596,93.316193
	C736.974243,100.405327 743.764465,99.457436 747.326355,100.203697
	C755.741699,101.966843 764.596252,101.633507 773.287476,102.148811
	C774.067871,103.108475 772.176086,105.154083 774.364319,105.345360
	C779.938477,105.832588 785.560669,106.429329 790.990906,104.222603
	C782.288818,99.394104 772.202087,99.506439 762.899780,94.705055
M479.143219,327.708527
	C480.640900,326.770142 482.849670,327.317413 484.482727,324.567078
	C477.623291,323.798950 472.305969,318.704987 464.985168,320.806183
	C453.786285,324.020508 442.363861,326.274353 430.795288,327.724060
	C426.779572,328.227295 422.594574,327.925293 418.995850,330.760071
	C439.061615,335.695740 458.832642,334.058105 479.143219,327.708527
M518.188599,600.260681
	C526.976562,608.625061 541.783630,612.464355 548.672302,606.973938
	C530.835815,603.333984 515.831177,595.786133 503.738342,582.711060
	C505.635864,588.120300 506.434906,593.903137 512.293884,596.345459
	C514.308289,597.185242 516.349304,597.878296 518.188599,600.260681
M319.829010,350.627747
	C323.345032,350.462524 327.021362,351.885590 330.400726,349.767456
	C326.226654,339.467865 316.191010,337.007690 308.203766,344.080139
	C305.590210,346.394287 306.007294,348.149384 309.146851,348.969574
	C312.328491,349.800720 315.657654,350.067200 319.829010,350.627747
M658.659241,234.440308
	C658.636841,233.608444 658.672729,232.770096 658.581177,231.945908
	C658.294556,229.364914 656.819214,227.303497 654.421936,226.909668
	C651.533936,226.435196 650.501404,229.150162 649.864929,231.315811
	C649.270081,233.339706 649.280029,235.574738 649.244324,237.720520
	C649.205994,240.022827 649.879517,242.108231 652.476807,242.691345
	C655.102722,243.280884 656.425903,241.500504 657.547791,239.542953
	C658.308167,238.216110 658.691772,236.781860 658.659241,234.440308
M223.535782,543.565979
	C225.549866,535.412415 227.672272,527.275696 228.395996,517.838806
	C223.633347,519.831482 222.566711,522.959839 222.449112,526.217285
	C222.292221,530.563110 221.564926,534.756287 220.643158,538.972656
	C220.262360,540.714661 220.078430,542.707947 220.545197,544.380310
	C221.335175,547.210754 222.435394,545.741638 223.535782,543.565979
M294.674225,157.744339
	C299.225677,160.478622 303.730103,163.321182 309.248901,164.813675
	C308.488281,158.201538 294.954041,150.584641 285.690735,151.157532
	C288.294189,153.871552 290.689941,156.219696 294.674225,157.744339
M478.116333,533.615906
	C480.083984,535.644958 481.283325,537.707886 479.755249,540.706482
	C479.149200,541.895813 479.021637,543.901672 479.626862,545.022400
	C481.121552,547.790344 482.053436,550.346802 480.551514,553.406799
	C480.067078,554.393799 480.641968,555.390259 481.807068,555.682800
	C483.093872,556.005859 484.277618,555.576233 484.550140,554.255615
	C484.880310,552.655396 485.029327,550.957214 484.891052,549.332581
	C484.515045,544.915344 482.055359,540.841919 482.864532,536.187195
	C483.479309,532.650757 481.737610,529.933289 479.309235,527.289795
	C477.574524,528.299622 475.921997,528.985474 475.124054,530.628662
	C475.504364,532.117371 476.724335,532.476318 478.116333,533.615906
M541.167419,215.936539
	C544.825745,217.245071 546.056824,214.840973 546.472778,212.058914
	C546.768250,210.082443 545.554810,208.230057 543.296936,208.612579
	C540.454041,209.094223 539.901001,211.418579 540.263062,213.980988
	C540.331177,214.462845 540.565979,214.921188 541.167419,215.936539
M319.294647,169.388062
	C322.156067,169.087418 321.698181,167.502960 320.318634,166.111496
	C318.959778,164.740891 317.222961,163.745010 315.632965,162.570663
	C312.781097,167.553925 312.875763,167.751251 319.294647,169.388062
M554.903809,610.897705
	C556.300232,610.894714 557.843994,611.343384 558.768921,609.637390
	C557.449341,607.810669 555.534180,608.063232 553.960754,608.639954
	C552.109985,609.318298 552.916016,610.231812 554.903809,610.897705
z"/>
<path fill="#000000" opacity="1.000000" stroke="none"
	d="
M632.198242,250.230652
	C632.906494,254.363068 633.160522,258.308228 635.496704,261.797089
	C638.921936,266.912506 643.916931,269.212036 649.989319,268.235199
	C651.746277,267.952606 653.477661,267.120026 655.325684,267.737823
	C654.866394,272.334045 654.159668,272.823059 647.567932,273.254547
	C644.828186,273.433868 641.175537,272.657867 643.247803,277.934937
	C637.996277,277.769684 635.006165,274.728607 632.335693,271.380981
	C628.210205,266.209442 627.556396,260.206482 628.932678,253.955582
	C629.285461,252.353333 629.497437,250.172729 632.198242,250.230652
z"/>
</svg>
